<svg width="1600" height="900" viewBox="0 0 1600 900" fill="none" xmlns="http://www.w3.org/2000/svg">
  <rect width="1600" height="900" fill="#08162D"/>
  <g opacity="0.16">
    <circle cx="220" cy="140" r="220" fill="#6E1E32"/>
    <circle cx="1380" cy="120" r="180" fill="#9A6B2F"/>
    <circle cx="1260" cy="760" r="260" fill="#123A6E"/>
  </g>
  <g opacity="0.10" stroke="#E6D2B5">
    <path d="M0 710C180 660 300 640 470 670C690 708 888 814 1120 798C1319 784 1450 712 1600 650"/>
    <path d="M0 760C200 720 380 700 550 720C760 745 955 836 1180 834C1348 832 1480 802 1600 770"/>
  </g>
  <g opacity="0.12" fill="#F8F3EA">
    <rect x="0" y="760" width="1600" height="140"/>
    <rect x="120" y="690" width="54" height="70" rx="4"/>
    <rect x="184" y="650" width="82" height="110" rx="4"/>
    <rect x="278" y="615" width="58" height="145" rx="4"/>
    <rect x="350" y="585" width="96" height="175" rx="4"/>
    <rect x="462" y="632" width="52" height="128" rx="4"/>
    <rect x="530" y="566" width="74" height="194" rx="4"/>
    <rect x="622" y="502" width="110" height="258" rx="5"/>
    <rect x="750" y="430" width="76" height="330" rx="5"/>
    <rect x="840" y="360" width="128" height="400" rx="6"/>
    <rect x="986" y="455" width="88" height="305" rx="5"/>
    <rect x="1090" y="548" width="70" height="212" rx="4"/>
    <rect x="1178" y="620" width="64" height="140" rx="4"/>
    <rect x="1260" y="596" width="90" height="164" rx="4"/>
    <rect x="1368" y="648" width="58" height="112" rx="4"/>
  </g>
  <g opacity="0.12" stroke="#D8B37A">
    <line x1="80" y1="120" x2="520" y2="120"/>
    <line x1="80" y1="144" x2="420" y2="144"/>
    <line x1="1080" y1="180" x2="1500" y2="180"/>
    <line x1="1180" y1="204" x2="1500" y2="204"/>
  </g>
</svg>
