<svg width="1600" height="1100" viewBox="0 0 1600 1100" fill="none" xmlns="http://www.w3.org/2000/svg">
  <rect width="1600" height="1100" fill="#F8F2EA"/>
  <g opacity="0.9">
    <rect y="820" width="1600" height="280" fill="#EFE3D5"/>
    <path d="M0 845C218 810 424 798 635 826C865 858 1028 884 1248 866C1404 853 1514 836 1600 816V1100H0V845Z" fill="#F2E8DC"/>
  </g>
  <g opacity="0.22">
    <circle cx="186" cy="182" r="172" fill="#B45A62"/>
    <circle cx="1318" cy="168" r="154" fill="#D6B27E"/>
  </g>
  <g opacity="0.3">
    <path d="M176 296H640" stroke="#B48756" stroke-width="3"/>
    <path d="M176 332H548" stroke="#B48756" stroke-width="2"/>
    <path d="M1018 282H1456" stroke="#B48756" stroke-width="3"/>
    <path d="M1092 318H1456" stroke="#B48756" stroke-width="2"/>
  </g>
  <g opacity="0.92">
    <path d="M165 835H1435" stroke="#D8C3AC" stroke-width="18" stroke-linecap="round"/>
  </g>
  <g opacity="0.95">
    <rect x="318" y="720" width="114" height="100" rx="10" fill="#8D6A52"/>
    <rect x="1170" y="732" width="106" height="88" rx="10" fill="#8D6A52"/>
    <rect x="478" y="640" width="154" height="180" rx="12" fill="#9E7A60"/>
    <rect x="972" y="650" width="146" height="170" rx="12" fill="#9E7A60"/>
  </g>
  <g opacity="0.96">
    <rect x="620" y="280" width="150" height="540" rx="16" fill="#7B2840"/>
    <rect x="830" y="280" width="150" height="540" rx="16" fill="#7B2840"/>
    <rect x="600" y="250" width="190" height="48" rx="12" fill="#A54358"/>
    <rect x="810" y="250" width="190" height="48" rx="12" fill="#A54358"/>
    <rect x="648" y="212" width="94" height="42" rx="10" fill="#C65D67"/>
    <rect x="858" y="212" width="94" height="42" rx="10" fill="#C65D67"/>
    <rect x="642" y="196" width="106" height="16" rx="8" fill="#D9B17A"/>
    <rect x="852" y="196" width="106" height="16" rx="8" fill="#D9B17A"/>
  </g>
  <g opacity="0.24" fill="#F8E9D5">
    <rect x="640" y="316" width="22" height="472"/>
    <rect x="688" y="316" width="22" height="472"/>
    <rect x="736" y="316" width="22" height="472"/>
    <rect x="850" y="316" width="22" height="472"/>
    <rect x="898" y="316" width="22" height="472"/>
    <rect x="946" y="316" width="22" height="472"/>
  </g>
  <g opacity="0.34" stroke="#F6E5D0">
    <path d="M620 366H770"/>
    <path d="M620 444H770"/>
    <path d="M620 522H770"/>
    <path d="M620 600H770"/>
    <path d="M620 678H770"/>
    <path d="M620 756H770"/>
    <path d="M830 366H980"/>
    <path d="M830 444H980"/>
    <path d="M830 522H980"/>
    <path d="M830 600H980"/>
    <path d="M830 678H980"/>
    <path d="M830 756H980"/>
  </g>
  <g opacity="0.16">
    <path d="M0 862C220 838 402 832 648 856C892 880 1118 902 1600 846" stroke="#7B2840" stroke-width="2"/>
    <path d="M0 896C206 876 428 874 636 896C882 924 1120 936 1600 890" stroke="#D0B08A" stroke-width="2"/>
  </g>
</svg>
